HIERARCHY
ROOT Hips
{
  OFFSET 0 0 0
  CHANNELS 6 Xposition Yposition Zposition Zrotation Xrotation Yrotation
  JOINT Spine
  {
    OFFSET 0.00000000 0.00000000 0.00000000
    CHANNELS 3 Zrotation Xrotation Yrotation
    JOINT Spine1
    {
      OFFSET 0.19000000 0.00000000 0.00000000
      CHANNELS 3 Zrotation Xrotation Yrotation
      JOINT Neck
      {
        OFFSET 0.22500000 0.00600000 0.00000000
        CHANNELS 3 Zrotation Xrotation Yrotation
        JOINT Head
        {
          OFFSET 0.14000000 0.00030878 0.00000000
          CHANNELS 3 Zrotation Xrotation Yrotation
          End Site
          {
            OFFSET 0.17000000 0.00000000 0.00000000
          }
        }
      }
      JOINT LeftShoulder
      {
        OFFSET 0.19800000 0.03700000 0.04300000
        CHANNELS 3 Zrotation Xrotation Yrotation
        JOINT LeftArm
        {
          OFFSET 0.08000000 0.00000000 0.00000000
          CHANNELS 3 Zrotation Xrotation Yrotation
          JOINT LeftForeArm
          {
            OFFSET 0.15200000 0.00000000 0.00000000
            CHANNELS 3 Zrotation Xrotation Yrotation
            JOINT LeftHand
            {
              OFFSET 0.17800000 0.00000000 0.00000000
              CHANNELS 3 Zrotation Xrotation Yrotation
              End Site
              {
                OFFSET 0.07200000 0.00000000 0.00000000
              }
            }
          }
        }
      }
      JOINT RightShoulder
      {
        OFFSET 0.19800000 0.03700000 -0.04300000
        CHANNELS 3 Zrotation Xrotation Yrotation
        JOINT RightArm
        {
          OFFSET 0.08000000 0.00000000 0.00151654
          CHANNELS 3 Zrotation Xrotation Yrotation
          JOINT RightForeArm
          {
            OFFSET 0.15200000 0.00000000 0.00000000
            CHANNELS 3 Zrotation Xrotation Yrotation
            JOINT RightHand
            {
              OFFSET 0.17800000 0.00000000 0.00000000
              CHANNELS 3 Zrotation Xrotation Yrotation
              End Site
              {
                OFFSET 0.07200000 0.00000000 0.00000000
              }
            }
          }
        }
      }
    }
  }
  JOINT LeftUpLeg
  {
    OFFSET 0.05984250 -0.07666000 0.04788790
    CHANNELS 3 Zrotation Xrotation Yrotation
    JOINT LeftLeg
    {
      OFFSET 0.16000000 0.00000000 0.00000000
      CHANNELS 3 Zrotation Xrotation Yrotation
      JOINT LeftFoot
      {
        OFFSET 0.18000000 0.00000000 0.00000000
        CHANNELS 3 Zrotation Xrotation Yrotation
        End Site
        {
          OFFSET 0.00000000 -0.10800000 0.00000000
        }
      }
    }
  }
  JOINT RightUpLeg
  {
    OFFSET 0.05984250 -0.07665980 -0.04788790
    CHANNELS 3 Zrotation Xrotation Yrotation
    JOINT RightLeg
    {
      OFFSET 0.16000000 0.00000000 0.00000000
      CHANNELS 3 Zrotation Xrotation Yrotation
      JOINT RightFoot
      {
        OFFSET 0.18000000 0.00000000 0.00000000
        CHANNELS 3 Zrotation Xrotation Yrotation
        End Site
        {
          OFFSET 0.00000000 -0.10800000 0.00000000
        }
      }
    }
  }
  JOINT Tail
  {
    OFFSET 0.06836960 -0.00722574 0.00000000
    CHANNELS 3 Zrotation Xrotation Yrotation
    JOINT Tail1
    {
      OFFSET 0.12000000 0.00000000 0.00000000
      CHANNELS 3 Zrotation Xrotation Yrotation
      End Site
      {
        OFFSET 0.12000000 0.00000000 0.00000000
      }
    }
  }
}
MOTION
Frames:	12
Frame Time:	0.0166667
-1.4028042 0.4703900 -0.9248796 -0.81573 -7.81646 -153.859 -172.175 0.830927 -7.4823 -13.3593 -5.21593 23.0827 -15.1081 -7.67042 19.6993 -104.079 77.4814 120.898 -110.322 -35.3485 -140.397 124.456 -34.941 -116.925 -51.1268 17.3324 -14.9604 -15.0205 4.72189 -21.0082 76.6011 -27.657 43.5468 26.0983 -47.2895 -53.2456 -58.8819 -18.4054 0.492071 -13.8944 0.340005 3.72552 -121.614 -7.23485 -15.0725 70.7645 14.8703 10.4887 44.5741 -4.37622 -7.50291 -119.656 3.65454 -8.46999 69.9301 -11.446 -3.48807 54.7641 2.38689 0.00957927 -35.8968 -67.5897 8.18674 2.97388 53.2823 2.1356 
-1.4029028 0.4698760 -0.9243585 -0.88772 -7.72406 -153.979 -172.381 0.772607 -7.77983 -13.2479 -5.27155 23.2591 -14.8163 -7.7497 19.6655 -104.231 77.1765 120.677 -110.382 -35.3762 -140.5 124.69 -34.9895 -117.017 -51.0514 17.2344 -14.772 -14.8261 4.72401 -21.1857 76.6695 -27.5164 43.4395 26.5291 -47.1467 -52.7868 -58.8187 -18.4558 0.54577 -14.0425 0.350428 3.63995 -121.842 -7.28013 -14.8628 71.1533 14.6098 10.3676 44.5303 -4.3453 -7.47702 -119.924 3.69467 -8.45109 70.3582 -11.0242 -3.42978 54.6492 2.35829 -0.0211874 -24.465 -61.0471 20.2547 3.8289 43.1741 3.18738 
-1.4031482 0.4696130 -0.9240013 -0.94573 -7.71094 -154.109 -172.515 0.727592 -7.99669 -13.178 -5.32539 23.4154 -14.6901 -7.68746 19.5985 -104.343 77.3385 120.655 -110.296 -35.3515 -140.32 124.994 -35.1217 -117.061 -51.0235 17.1399 -14.5875 -14.6089 4.69075 -21.2315 76.6955 -27.469 43.4144 26.5298 -47.0111 -52.728 -58.7126 -18.475 0.478543 -14.1953 0.377438 3.52659 -121.925 -7.26423 -14.6671 71.1924 14.6089 10.2241 44.3364 -4.31813 -7.44181 -119.884 3.75628 -8.29586 70.2869 -11.229 -3.50981 54.3827 2.41055 0.0481688 -17.4081 -54.6302 28.6543 4.26829 35.0578 3.87171 
-1.4034837 0.4693540 -0.9239091 -1.01345 -7.75632 -154.138 -172.576 0.738743 -7.84613 -13.2508 -5.28346 23.1789 -14.8391 -7.63947 19.4536 -104.027 77.1853 120.965 -110.262 -35.3371 -140.259 125.076 -35.3712 -117.21 -51.2438 17.1132 -14.459 -14.3176 4.64423 -21.2417 76.7935 -27.4225 43.6738 26.0764 -47.12 -53.0781 -58.7249 -18.3544 0.33235 -14.2342 0.352658 3.62569 -122.098 -7.22065 -14.5219 71.3857 14.3638 10.0814 44.2184 -4.27484 -7.3936 -119.913 3.83225 -8.07915 70.1457 -11.7466 -3.68351 54.3851 2.48593 0.127656 -12.9307 -48.5788 34.9526 4.71853 28.5188 4.16063 
-1.4036209 0.4692580 -0.9239371 -1.12151 -7.78546 -154.114 -172.619 0.754197 -7.6654 -13.3505 -5.27303 23.0219 -14.7414 -7.70605 19.4268 -104.258 77.003 120.726 -110.266 -35.3998 -140.14 125.134 -35.652 -117.155 -51.4403 17.1614 -14.4582 -14.0053 4.5909 -21.2216 76.7569 -27.4682 43.6525 26.0299 -47.3001 -53.0299 -58.854 -18.3794 0.273818 -14.2444 0.321723 3.79812 -122.361 -7.20531 -14.4019 71.5777 14.1819 9.96144 44.2788 -4.24547 -7.35512 -120.064 3.83628 -7.99843 70.1399 -11.752 -3.71386 54.4128 2.49356 0.127969 -9.99084 -43.1245 40.1 4.86848 23.3352 4.29267 
-1.4034763 0.4687430 -0.9238898 -1.26964 -7.82791 -154.106 -172.616 0.701591 -7.61344 -13.6125 -5.37526 22.963 -14.6256 -7.66249 19.4034 -104.384 76.9275 120.805 -110.361 -35.5931 -140.004 125.045 -36.0519 -116.858 -51.5572 17.3146 -14.6761 -13.7366 4.56379 -21.2772 76.7527 -27.3944 43.4385 26.3718 -47.5711 -52.6842 -59.1916 -18.385 0.25295 -14.1411 0.320003 3.84062 -122.719 -7.19249 -14.3772 71.8998 14.1402 9.92614 44.1645 -4.23915 -7.36117 -120.47 3.27921 -9.28613 70.6958 -9.9808 -2.81085 53.9868 2.18748 -0.153828 -8.0939 -38.4825 44.3716 5.01038 19.2706 4.47555 
-1.4034766 0.4685480 -0.9238370 -1.38778 -7.94678 -154.081 -172.377 0.665586 -7.40428 -14.1724 -5.465 22.691 -14.392 -7.67155 19.5307 -104.443 76.9158 120.725 -110.387 -35.6392 -139.981 124.66 -36.2417 -116.723 -51.6529 17.5543 -15.0153 -13.7199 4.56399 -21.2468 76.7844 -27.2955 43.297 26.5471 -47.841 -52.7216 -59.4784 -18.4031 0.2834 -14.0367 0.286438 3.98959 -122.91 -7.13269 -14.4273 71.8487 14.1986 9.9691 44.2201 -4.25495 -7.38058 -120.698 3.11832 -9.73366 70.7393 -9.67516 -2.54783 54.0119 2.13431 -0.2137 -6.8475 -34.7276 48.0844 5.32035 16.1416 4.58042 
-1.4035766 0.4684660 -0.9238195 -1.47769 -8.05120 -153.923 -172.073 0.65558 -6.93928 -14.773 -5.50692 22.2152 -14.2671 -7.65306 19.6749 -104.43 76.9218 120.777 -110.359 -35.5291 -140.13 123.959 -36.1892 -116.865 -51.83 17.806 -15.3319 -14.0029 4.61511 -21.1882 76.8326 -27.1915 43.2058 26.3973 -48.2681 -52.8342 -59.8122 -18.3976 0.214099 -13.8992 0.244429 4.26045 -122.967 -7.04208 -14.5435 71.6292 14.3993 10.0921 44.2202 -4.30023 -7.44058 -120.861 2.9824 -10.0445 70.6944 -9.80958 -2.38174 54.0691 2.15706 -0.206531 -6.06351 -31.9329 51.2857 5.73704 13.7372 5.17391 
-1.4037651 0.4689130 -0.9240856 -1.68065 -8.17144 -153.748 -172.073 0.696423 -6.41161 -15.0537 -5.45161 21.728 -14.3171 -7.67392 19.7458 -104.38 76.8014 120.879 -110.367 -35.4958 -140.218 123.49 -36.0254 -116.895 -51.8667 17.9181 -15.526 -14.4106 4.70692 -21.2054 76.7931 -27.2557 43.2237 26.0697 -48.4832 -53.1442 -59.8067 -18.3974 0.227395 -13.8905 0.165741 4.62516 -123.109 -7.03815 -14.6711 71.2377 14.5364 10.2615 44.3902 -4.34928 -7.48962 -120.782 3.8191 -8.58918 69.9932 -10.7621 -3.4498 54.4458 2.31943 -0.049389 -5.6976 -29.9968 53.9614 6.37025 12.0002 6.16074 
-1.4036878 0.4690830 -0.9242604 -1.85931 -8.21065 -153.608 -172.272 0.783587 -5.98572 -14.9912 -5.313 21.3709 -14.6524 -7.68884 19.696 -104.013 77.0231 120.837 -110.46 -35.629 -140.196 123.378 -35.9512 -116.576 -51.7241 17.9741 -15.6871 -14.918 4.80534 -21.2097 76.6809 -27.47 43.3599 26.0551 -48.6122 -53.3438 -59.8679 -18.3803 0.258731 -13.8353 0.147028 4.75849 -123.26 -7.06298 -14.7641 71.0533 14.5998 10.4359 44.5067 -4.38794 -7.53718 -120.911 3.89333 -8.38974 69.7888 -10.8057 -3.55067 54.705 2.34379 -0.0495116 -5.44407 -29.0946 56.1991 7.28975 10.9452 7.58922 
-1.4036878 0.4690090 -0.9241139 -1.99310 -8.28695 -153.522 -172.479 0.840188 -5.77877 -14.9212 -5.24146 21.2364 -14.7164 -7.72586 19.5135 -104.125 76.7142 120.824 -110.468 -35.652 -140.171 123.405 -35.9177 -116.548 -51.6017 17.9804 -15.658 -15.3158 4.89652 -21.3135 76.5768 -27.6396 43.4068 26.2143 -48.5462 -53.528 -59.7902 -18.5986 0.38008 -13.9241 0.18067 4.67056 -123.384 -7.04877 -14.8119 70.9024 14.626 10.5364 44.5035 -4.40177 -7.55611 -121.064 3.85317 -8.33952 69.6876 -11.0685 -3.55875 54.8033 2.41249 -0.00222389 -5.26736 -29.4451 57.9465 8.44322 10.5564 9.31306 
-1.4040129 0.4688720 -0.9237725 -1.96137 -8.34307 -153.482 -172.569 0.843175 -5.68765 -14.8314 -5.19539 21.1056 -14.6752 -7.63175 19.5184 -104.399 76.8164 121.035 -110.444 -35.5843 -140.246 123.387 -35.826 -116.933 -51.5859 17.9113 -15.4199 -15.4953 4.94781 -21.4331 76.5811 -27.6228 43.3789 26.108 -48.4537 -53.558 -59.7331 -18.4734 0.353482 -13.8682 0.184564 4.64748 -123.375 -7.01639 -14.9006 70.8481 14.6905 10.5909 44.3234 -4.41324 -7.57974 -121.026 3.9659 -8.22999 69.6405 -11.2271 -3.66696 54.6088 2.45267 0.050853 -4.94051 -31.1178 59.371 9.57086 10.7186 11.1128 
